<svg xmlns="http://www.w3.org/2000/svg" width="960" height="560" viewBox="0 0 960 560">
<rect width="100%" height="100%" fill="white"/>
<text x="90" y="42" font-family="Arial" font-size="24" font-weight="bold">External VOMM per-tactic Top-1</text>
<text x="22" y="280.0" font-family="Arial" font-size="14" transform="rotate(-90 22 280.0)">Top-1 accuracy</text>
<line x1="90" y1="470" x2="870" y2="470" stroke="#334155"/>
<line x1="90" y1="90" x2="90" y2="470" stroke="#334155"/>
<rect x="110.80" y="470.00" width="88.40" height="0.00" fill="#2563eb"/>
<text x="155.00" y="462.00" text-anchor="middle" font-family="Arial" font-size="12">0.000</text>
<text x="155.00" y="492" text-anchor="middle" font-family="Arial" font-size="11">command-and-control</text>
<rect x="240.80" y="178.60" width="88.40" height="291.40" fill="#2563eb"/>
<text x="285.00" y="170.60" text-anchor="middle" font-family="Arial" font-size="12">0.766</text>
<text x="285.00" y="492" text-anchor="middle" font-family="Arial" font-size="11">defense-evasion</text>
<rect x="370.80" y="90.00" width="88.40" height="380.00" fill="#2563eb"/>
<text x="415.00" y="82.00" text-anchor="middle" font-family="Arial" font-size="12">0.999</text>
<text x="415.00" y="492" text-anchor="middle" font-family="Arial" font-size="11">discovery</text>
<rect x="500.80" y="108.14" width="88.40" height="361.86" fill="#2563eb"/>
<text x="545.00" y="100.14" text-anchor="middle" font-family="Arial" font-size="12">0.951</text>
<text x="545.00" y="492" text-anchor="middle" font-family="Arial" font-size="11">execution</text>
<rect x="630.80" y="470.00" width="88.40" height="0.00" fill="#2563eb"/>
<text x="675.00" y="462.00" text-anchor="middle" font-family="Arial" font-size="12">0.000</text>
<text x="675.00" y="492" text-anchor="middle" font-family="Arial" font-size="11">persistence</text>
<rect x="760.80" y="470.00" width="88.40" height="0.00" fill="#2563eb"/>
<text x="805.00" y="462.00" text-anchor="middle" font-family="Arial" font-size="12">0.000</text>
<text x="805.00" y="492" text-anchor="middle" font-family="Arial" font-size="11">privilege-escalation</text>
</svg>
